<svg xmlns="http://www.w3.org/2000/svg" xmlns:xlink="http://www.w3.org/1999/xlink" width="500" zoomAndPan="magnify" viewBox="0 0 375 374.999991" height="500" preserveAspectRatio="xMidYMid meet" version="1.0"><defs><clipPath id="02dccb4ef6"><path d="M 0.296875 0.191406 L 160.839844 0.191406 L 160.839844 86.695312 L 0.296875 86.695312 Z M 0.296875 0.191406 " clip-rule="nonzero"/></clipPath><clipPath id="7560017bab"><path d="M 53.296875 16.296875 L 107.703125 16.296875 L 107.703125 70.703125 L 53.296875 70.703125 Z M 53.296875 16.296875 " clip-rule="nonzero"/></clipPath><clipPath id="7d6e80e6d1"><path d="M 80.5 16.296875 C 65.476562 16.296875 53.296875 28.476562 53.296875 43.5 C 53.296875 58.523438 65.476562 70.703125 80.5 70.703125 C 95.523438 70.703125 107.703125 58.523438 107.703125 43.5 C 107.703125 28.476562 95.523438 16.296875 80.5 16.296875 Z M 80.5 16.296875 " clip-rule="nonzero"/></clipPath><clipPath id="13b18095af"><path d="M 0.296875 0.296875 L 54.703125 0.296875 L 54.703125 54.703125 L 0.296875 54.703125 Z M 0.296875 0.296875 " clip-rule="nonzero"/></clipPath><clipPath id="24c4a4c11b"><path d="M 27.5 0.296875 C 12.476562 0.296875 0.296875 12.476562 0.296875 27.5 C 0.296875 42.523438 12.476562 54.703125 27.5 54.703125 C 42.523438 54.703125 54.703125 42.523438 54.703125 27.5 C 54.703125 12.476562 42.523438 0.296875 27.5 0.296875 Z M 27.5 0.296875 " clip-rule="nonzero"/></clipPath><clipPath id="7dcd720ef3"><rect x="0" width="55" y="0" height="55"/></clipPath><clipPath id="8ad24fdee1"><path d="M 56.617188 20 L 101 20 L 101 67.550781 L 56.617188 67.550781 Z M 56.617188 20 " clip-rule="nonzero"/></clipPath><clipPath id="25f80e2cc3"><path d="M 65 19.285156 L 104.050781 19.285156 L 104.050781 59 L 65 59 Z M 65 19.285156 " clip-rule="nonzero"/></clipPath><clipPath id="c3fd4fc1a4"><rect x="0" width="161" y="0" height="88"/></clipPath></defs><g transform="matrix(1, 0, 0, 1, 107, 144)"><g clip-path="url(#c3fd4fc1a4)"><g clip-path="url(#02dccb4ef6)"><path fill="#5e17eb" d="M 81.46875 86.785156 C 54.570312 86.785156 28.105469 73.367188 2.8125 46.902344 L 0.296875 44.269531 L 2.5625 41.421875 C 3.902344 39.742188 35.917969 0.207031 81.6875 0.207031 C 108.652344 0.207031 134.476562 14.019531 158.4375 41.265625 L 160.695312 43.835938 L 158.617188 46.554688 C 157.359375 48.199219 127.289062 86.785156 81.46875 86.785156 Z M 11.492188 43.859375 C 34.324219 66.816406 57.851562 78.445312 81.46875 78.445312 C 116.585938 78.445312 142.324219 52.554688 149.785156 44.113281 C 128.175781 20.507812 105.277344 8.542969 81.6875 8.542969 C 46.605469 8.542969 19.476562 35.105469 11.492188 43.859375 Z M 11.492188 43.859375 " fill-opacity="1" fill-rule="nonzero"/></g><path fill="#5e17eb" d="M 80.566406 16.875 C 65.863281 16.875 53.945312 28.792969 53.945312 43.496094 C 53.945312 58.199219 65.863281 70.117188 80.566406 70.117188 C 95.269531 70.117188 107.1875 58.199219 107.1875 43.496094 C 107.1875 28.792969 95.269531 16.875 80.566406 16.875 Z M 80.566406 54.667969 C 74.394531 54.667969 69.394531 49.667969 69.394531 43.496094 C 69.394531 37.324219 74.394531 32.324219 80.566406 32.324219 C 86.734375 32.324219 91.738281 37.324219 91.738281 43.496094 C 91.738281 49.667969 86.734375 54.667969 80.566406 54.667969 Z M 80.566406 54.667969 " fill-opacity="1" fill-rule="nonzero"/><g clip-path="url(#7560017bab)"><g clip-path="url(#7d6e80e6d1)"><g transform="matrix(1, 0, 0, 1, 53, 16)"><g clip-path="url(#7dcd720ef3)"><g clip-path="url(#13b18095af)"><g clip-path="url(#24c4a4c11b)"><path fill="#121820" d="M 0.296875 0.296875 L 54.703125 0.296875 L 54.703125 54.703125 L 0.296875 54.703125 Z M 0.296875 0.296875 " fill-opacity="1" fill-rule="nonzero"/></g></g></g></g></g></g><g clip-path="url(#8ad24fdee1)"><path fill="#fffcfa" d="M 100.527344 46.492188 C 99.628906 49.691406 94.25 58.59375 83.109375 60.382812 C 72.710938 62.058594 61.199219 54.570312 59.421875 43.160156 C 57.882812 33.3125 64.0625 23.519531 73.71875 20.191406 C 69.277344 21.617188 62.742188 24.90625 59.035156 32.339844 C 58.65625 33.101562 53.613281 43.664062 59.355469 54.238281 C 60.214844 55.820312 64.6875 64.0625 74.402344 65.761719 C 85.433594 67.695312 93.207031 59.4375 93.738281 58.847656 C 92.992188 60.242188 91.414062 62.722656 88.488281 64.738281 C 84.332031 67.601562 80.074219 67.71875 78.5 67.683594 C 79.71875 67.75 88.734375 68.070312 95.210938 60.898438 C 100.511719 55.03125 100.558594 48.089844 100.527344 46.492188 Z M 68.726562 61.707031 C 62.171875 58.136719 60.140625 51.933594 59.761719 50.695312 C 60.65625 52.472656 63.441406 57.429688 69.492188 60.640625 C 75.617188 63.894531 81.359375 63.382812 83.324219 63.117188 C 82.171875 63.476562 75.566406 65.433594 68.726562 61.707031 Z M 68.726562 61.707031 " fill-opacity="1" fill-rule="nonzero"/></g><path fill="#fffcfa" d="M 65.992188 37.503906 C 65.007812 40.125 63.890625 44.335938 65.351562 48.605469 C 67.699219 55.453125 75.253906 58.289062 75.085938 58.550781 C 74.90625 58.832031 65.339844 56.667969 61.769531 48.007812 C 58.566406 40.25 62.578125 33.09375 63.089844 32.210938 C 62.429688 33.449219 60.886719 36.738281 61.511719 40.921875 C 61.835938 43.085938 62.628906 44.753906 63.261719 45.828125 C 63.246094 44.757812 63.347656 43.125 63.988281 41.261719 C 64.566406 39.574219 65.375 38.316406 65.996094 37.503906 Z M 65.992188 37.503906 " fill-opacity="1" fill-rule="nonzero"/><path fill="#fffcfa" d="M 77.160156 57.25 C 79.9375 57.488281 85.386719 57.761719 90.828125 53.40625 C 94.636719 50.351562 96.148438 46.414062 96.441406 42.914062 C 96.734375 39.332031 95.445312 36.203125 94.828125 34.933594 C 96.363281 40.921875 95.648438 44.867188 91.007812 48.839844 C 86.367188 52.808594 79.90625 51.726562 76.164062 53.566406 C 76.164062 53.566406 78.617188 53.171875 79.953125 53.277344 C 81.285156 53.382812 84.710938 53.136719 84.710938 53.136719 C 84.710938 53.136719 81.574219 53.390625 79.207031 54.636719 C 76.835938 55.886719 74.132812 55.964844 74.132812 55.964844 C 74.132812 55.964844 75.089844 57.070312 77.160156 57.25 Z M 77.160156 57.25 " fill-opacity="1" fill-rule="nonzero"/><g clip-path="url(#25f80e2cc3)"><path fill="#fffcfa" d="M 93.441406 28.648438 C 97.292969 26.34375 102.253906 31.199219 103.023438 32.050781 C 99.371094 24.96875 91.003906 24.894531 89.085938 26.640625 C 89.085938 26.640625 92.179688 21.21875 98.03125 24.550781 C 95.296875 21.539062 88.253906 21.078125 84.265625 23.738281 C 85.539062 22.054688 89.734375 19.3125 92.011719 19.699219 C 85.375 18.792969 82.867188 24.132812 77.390625 27.066406 C 80.6875 23.703125 82.5 19.164062 87.273438 19.34375 C 87.273438 19.34375 81.796875 18.398438 77.519531 24.058594 C 75.597656 26.597656 74.636719 27.734375 73.433594 28.371094 C 73.09375 27.230469 75.910156 25.730469 75.296875 22.757812 C 75.480469 25.929688 70.75 26.835938 71.5 29.839844 C 71.464844 29.796875 70.644531 28.761719 71.542969 27.21875 C 68.773438 30.167969 72.738281 31.269531 68.289062 32.914062 C 69.273438 32.371094 69.167969 31.339844 69.074219 30.914062 C 69.46875 32.601562 66.863281 32.398438 66.847656 33.683594 C 66.589844 32.953125 67.007812 32 67.027344 31.957031 C 66.976562 32 64.636719 33.902344 66.390625 37.140625 C 66.472656 36.523438 66.507812 36.234375 66.507812 36.234375 C 66.507812 36.234375 67.382812 38.015625 68.664062 38.199219 C 67.617188 37.003906 68.160156 35.539062 68.160156 35.539062 L 69.507812 35.9375 C 69.507812 35.9375 69.132812 35.1875 69.183594 35.210938 C 69.238281 35.230469 70.460938 35.386719 70.496094 35.402344 L 70.09375 34.71875 C 70.09375 34.71875 71.492188 34.855469 71.457031 34.792969 C 71.425781 34.730469 70.871094 34.027344 70.871094 34.027344 C 70.871094 34.027344 70.828125 33.097656 76.058594 33.929688 C 74.179688 34.824219 72.800781 34.773438 72.800781 34.773438 C 73.832031 35.347656 73.285156 35.8125 72.128906 35.964844 L 72.289062 36.421875 L 71.386719 36.613281 L 71.554688 37.054688 C 71.554688 37.054688 70.347656 37.515625 69.332031 36.746094 C 69.730469 37.410156 70.144531 37.335938 70.507812 38.125 C 70.871094 38.914062 71.566406 40.609375 73.507812 40.011719 C 72.34375 39.714844 72.417969 38.574219 72.417969 38.574219 C 72.417969 38.574219 73.175781 39.769531 75.183594 39.320312 C 77.1875 38.871094 78.929688 41.828125 74.519531 42.5 C 78.472656 42.625 79.355469 38.816406 75.460938 38.261719 C 73.667969 38.132812 74.351562 36.523438 74.894531 36.351562 C 75.4375 36.179688 76.621094 36.300781 77.230469 36.757812 C 77.230469 36.757812 76.539062 35.402344 74.796875 35.710938 C 77.082031 34.082031 79.058594 37.015625 80.570312 36.246094 C 79.226562 36.675781 78.09375 34.664062 76.339844 34.5 C 79.246094 32.96875 84.121094 36.503906 82.738281 39.671875 C 82.882812 39.453125 84.457031 36.960938 82.117188 34.421875 C 83.574219 34.484375 85.433594 35.398438 85.878906 36.949219 C 85.914062 34.613281 84.105469 32.066406 80.582031 31.859375 C 83.382812 30.949219 86.21875 32.820312 86.855469 34.835938 L 86.984375 34.464844 C 86.984375 34.464844 87.464844 35.519531 87.25 37.238281 L 87.496094 37.066406 C 87.496094 37.066406 87.636719 38.253906 86.804688 39.511719 L 87.050781 39.585938 C 87.050781 39.585938 86.265625 41.015625 85.511719 41.480469 L 85.773438 41.523438 C 85.773438 41.523438 84.785156 42.507812 84.007812 42.574219 L 84.359375 42.722656 C 84.359375 42.722656 83.238281 43.503906 82.042969 43.480469 L 82.398438 43.746094 C 82.398438 43.746094 80.367188 44.367188 79.3125 44.023438 L 79.609375 44.441406 C 78.082031 44.753906 75.9375 44.230469 74.0625 45.15625 C 74.0625 45.15625 75.234375 45.085938 76.109375 45.628906 C 73.292969 45.253906 69.644531 46.683594 68.960938 49.777344 C 70.710938 47.578125 72.441406 47.644531 72.441406 47.644531 C 72.441406 47.644531 69.84375 48.613281 68.726562 51.953125 C 69.878906 53.746094 72.652344 55.5625 72.652344 55.5625 C 75.652344 48.929688 90.398438 52.871094 93.824219 43.308594 C 96.601562 36.351562 91.777344 25.894531 80.847656 30.121094 C 83.078125 28.941406 83.605469 27.8125 83.621094 27.777344 C 83.59375 27.8125 82.679688 28.9375 80.757812 29.332031 C 83.800781 28.050781 83.367188 25.632812 86.457031 24.464844 C 86.457031 24.464844 84.777344 24.539062 81.765625 27.425781 C 79.78125 29.332031 77.0625 29.523438 77.0625 29.523438 C 81.304688 28 83.332031 22.777344 90.027344 23.3125 C 86.457031 24.464844 85.011719 27.816406 85.011719 27.816406 C 100.53125 27.730469 103.792969 52.25 85.164062 58.910156 C 94.488281 57.242188 106.585938 43.09375 96.046875 31.507812 C 96.160156 31.578125 105.398438 37.308594 100.066406 53.855469 C 103.730469 49.050781 103.601562 40.40625 101.167969 35.605469 C 103.921875 38.871094 104.371094 41.878906 104.371094 41.878906 C 104.371094 41.878906 104.5625 31.101562 93.441406 28.648438 Z M 67.507812 34.648438 C 67.144531 34.691406 66.847656 35.15625 66.847656 35.15625 C 66.707031 34.492188 67.734375 33.78125 67.734375 33.78125 L 67.558594 34.304688 C 67.558594 34.304688 67.78125 34.347656 68.617188 33.96875 C 68.363281 34.324219 67.871094 34.609375 67.507812 34.648438 Z M 72.222656 53.195312 C 71.21875 52.949219 70.339844 52.351562 69.734375 51.53125 C 70.335938 50.472656 71.128906 49.523438 72.085938 48.773438 C 72.582031 49.808594 73.367188 50.667969 74.324219 51.261719 C 73.507812 51.734375 72.789062 52.355469 72.222656 53.195312 Z M 76.28125 50.433594 C 74.992188 50.074219 73.917969 49.132812 73.402344 47.882812 C 74.484375 47.257812 75.664062 46.8125 76.867188 46.445312 C 77.175781 47.816406 77.945312 48.988281 78.992188 49.8125 C 78.074219 49.972656 77.15625 50.160156 76.28125 50.433594 Z M 81.558594 49.382812 C 79.980469 48.964844 78.714844 47.683594 78.375 46.023438 C 79.640625 45.6875 80.890625 45.421875 82.125 45.011719 C 82.613281 46.601562 83.742188 47.882812 85.183594 48.597656 C 83.996094 48.953125 82.78125 49.175781 81.558594 49.382812 Z M 87.554688 47.640625 C 85.703125 47.535156 84.101562 46.253906 83.59375 44.46875 C 84.511719 44.089844 85.316406 43.71875 86.125 43.230469 C 87.125 44.621094 88.726562 45.375 90.359375 45.347656 C 89.585938 46.285156 88.628906 47.070312 87.554688 47.640625 Z M 92.007812 42.316406 C 91.84375 42.84375 91.628906 43.355469 91.367188 43.84375 C 89.835938 44.316406 88.128906 43.757812 87.1875 42.414062 C 87.628906 41.988281 87.972656 41.453125 88.238281 40.890625 C 89.59375 41.414062 91.121094 41.332031 92.414062 40.664062 C 92.320312 41.222656 92.179688 41.773438 92.007812 42.316406 Z M 91.988281 35.882812 C 92.34375 36.925781 92.53125 37.910156 92.550781 38.964844 C 91.488281 39.902344 89.996094 40.140625 88.71875 39.640625 C 88.886719 39.109375 88.941406 38.554688 88.949219 37.988281 C 90.191406 37.691406 91.277344 36.933594 91.988281 35.882812 Z M 90.171875 32.558594 C 90.605469 33.09375 90.984375 33.683594 91.308594 34.296875 C 90.902344 35.433594 89.972656 36.296875 88.839844 36.632812 C 88.730469 35.949219 88.53125 35.273438 88.253906 34.636719 C 89.078125 34.136719 89.742188 33.414062 90.171875 32.558594 Z M 89.167969 31.507812 C 88.886719 32.3125 88.339844 32.996094 87.625 33.449219 C 86.808594 32.390625 85.875 31.003906 84.441406 30.839844 C 85.375 30.886719 87.320312 31.582031 88.253906 31.5625 C 87.40625 31.476562 85.613281 30.175781 84.804688 30.402344 C 86.710938 29.867188 88.515625 30.917969 89.167969 31.507812 Z M 73.648438 31.5625 C 72.824219 31.785156 71.855469 32.050781 71.855469 32.050781 C 71.851562 30.464844 74.429688 30.386719 75.546875 29.265625 C 74.605469 30.558594 74.46875 31.335938 73.648438 31.5625 Z M 81.351562 32.925781 C 82.660156 33.371094 83.820312 34.191406 83.898438 34.246094 C 81.039062 32.597656 80.316406 33.667969 77.753906 33 C 77.753906 33 79.996094 32.46875 81.351562 32.925781 Z M 77.863281 31.636719 C 78.84375 30.984375 80.859375 30.855469 81.164062 30.839844 C 78.0625 31.019531 78.359375 33.046875 75.34375 32.445312 C 75.34375 32.445312 76.785156 32.351562 77.863281 31.636719 Z M 77.863281 31.636719 " fill-opacity="1" fill-rule="nonzero"/></g></g></g></svg>